<svg xmlns="http://www.w3.org/2000/svg" width="37.334" height="24.333" viewBox="0 0 37.334 24.333">
  <g id="id-card" transform="translate(0 -6.5)">
    <g id="Сгруппировать_1" data-name="Сгруппировать 1">
      <path id="Контур_1" data-name="Контур 1" d="M14.911,25H4.227a5.121,5.121,0,0,1,3.436-4.767,3.718,3.718,0,0,1-.9-2.109c-.207.042-.528-.195-.623-.556s-.16-.96.049-1.017a.258.258,0,0,1,.19.028V15.56c0-1.606-.378-2.55,2.247-2.819L8.6,12.735a7.1,7.1,0,0,0,2.614-.689,2.409,2.409,0,0,0,.235.868c1.211.464,1.363,1.537,1.328,2.647v1.021a.261.261,0,0,1,.191-.028c.209.057.1.672,0,1.041s-.365.57-.57.532a3.664,3.664,0,0,1-.955,2.1A5.114,5.114,0,0,1,14.911,25ZM37.334,6.5V30.833H0V6.5Zm-2,2H2V28.833H35.334Zm-2.667,4H17.834v2H32.667Zm0,5.167H17.834v2H32.667Zm0,5.168H17.834v2H32.667Z" fill="#fff"/>
    </g>
  </g>
</svg>
