<svg xmlns="http://www.w3.org/2000/svg" width="29.419" height="23.611" viewBox="0 0 29.419 23.611">
  <path id="map" d="M29.019,23.41a.938.938,0,0,0-.859-.111L19.3,26.553,10.442,23.3a.938.938,0,0,0-.646,0L.614,26.672a.937.937,0,0,0-.614.88V45.915a.937.937,0,0,0,1.26.88l8.858-3.255,8.859,3.255a.938.938,0,0,0,.646,0l9.182-3.373a.937.937,0,0,0,.614-.88V24.178A.937.937,0,0,0,29.019,23.41ZM11.056,25.521l7.307,2.685V44.572l-7.307-2.685ZM1.874,28.206l7.307-2.685V41.888L1.874,44.572ZM27.545,41.888l-7.308,2.685V28.206l7.308-2.685Z" transform="translate(0 -23.241)" fill="#efefef"/>
</svg>
