<svg xmlns="http://www.w3.org/2000/svg" width="24" height="24" viewBox="0 0 24 24">
  <g id="stick-man" transform="translate(-11 -11)">
    <g id="Сгруппировать_4" data-name="Сгруппировать 4" transform="translate(11 11)">
      <g id="Сгруппировать_2" data-name="Сгруппировать 2" transform="translate(6.333 0)">
        <path id="Контур_2" data-name="Контур 2" d="M145.967,22.334a5.667,5.667,0,1,1,5.667-5.667A5.673,5.673,0,0,1,145.967,22.334Zm0-9.336a3.669,3.669,0,1,0,3.669,3.669A3.673,3.673,0,0,0,145.967,13Z" transform="translate(-140.3 -11)" fill="#efefef"/>
      </g>
      <g id="Сгруппировать_3" data-name="Сгруппировать 3" transform="translate(0 12.054)">
        <path id="Контур_3" data-name="Контур 3" d="M34,269.046H12a1,1,0,0,1-1-1,12.067,12.067,0,0,1,3.58-8.62,8.213,8.213,0,0,1,5.76-2.327H25.66a8.2,8.2,0,0,1,5.76,2.327,12.067,12.067,0,0,1,3.58,8.62A1,1,0,0,1,34,269.046Zm-20.953-2H32.953a10.04,10.04,0,0,0-2.944-6.2A6.207,6.207,0,0,0,25.66,259.1H20.34a6.2,6.2,0,0,0-4.349,1.744,10.04,10.04,0,0,0-2.944,6.2Z" transform="translate(-11 -257.1)" fill="#efefef"/>
      </g>
    </g>
  </g>
</svg>
